<svg xmlns="http://www.w3.org/2000/svg" width="800" height="600"><style/><rect width="800" height="600" x="0" y="0" fill="#000" class="boundary" data-pcb-layer="global" data-type="pcb_background"/><rect width="488.523" height="496.059" x="155.738" y="51.971" fill="none" stroke="#fff" stroke-width=".3" class="pcb-boundary" data-pcb-layer="global" data-type="pcb_boundary"/><g data-pcb-layer="through" data-type="pcb_plated_hole"><path fill="#C83434" d="M-25.9852750108272,-15.591165006496322 v31.182330012992644 a25.9852750108272,25.9852750108272 0 0 0 51.9705500216544,0 v-31.182330012992644 a25.9852750108272,25.9852750108272 0 0 0 -51.9705500216544,0 z" class="pcb-hole-outer" data-pcb-layer="top" data-type="pcb_plated_hole" transform="translate(624.512776093547 399.9133824166306)"/><path fill="#FF26E2" d="M-15.591165006496318,-15.591165006496318 v31.182330012992637 a15.591165006496318,15.591165006496318 0 0 0 31.182330012992637,0 v-31.182330012992637 a15.591165006496318,15.591165006496318 0 0 0 -31.182330012992637,0 z" class="pcb-hole-inner" data-pcb-layer="drill" data-type="pcb_plated_hole_drill" transform="translate(624.512776093547 399.9133824166306)"/></g><g data-pcb-layer="through" data-type="pcb_plated_hole"><path fill="#C83434" d="M-25.9852750108272,-15.591165006496322 v31.182330012992644 a25.9852750108272,25.9852750108272 0 0 0 51.9705500216544,0 v-31.182330012992644 a25.9852750108272,25.9852750108272 0 0 0 -51.9705500216544,0 z" class="pcb-hole-outer" data-pcb-layer="top" data-type="pcb_plated_hole" transform="translate(175.48722390645298 399.9133824166306)"/><path fill="#FF26E2" d="M-15.591165006496318,-15.591165006496318 v31.182330012992637 a15.591165006496318,15.591165006496318 0 0 0 31.182330012992637,0 v-31.182330012992637 a15.591165006496318,15.591165006496318 0 0 0 -31.182330012992637,0 z" class="pcb-hole-inner" data-pcb-layer="drill" data-type="pcb_plated_hole_drill" transform="translate(175.48722390645298 399.9133824166306)"/></g><g data-pcb-layer="through" data-type="pcb_plated_hole"><path fill="#C83434" d="M-25.9852750108272,-28.58380251190992 v57.16760502381984 a25.9852750108272,25.9852750108272 0 0 0 51.9705500216544,0 v-57.16760502381984 a25.9852750108272,25.9852750108272 0 0 0 -51.9705500216544,0 z" class="pcb-hole-outer" data-pcb-layer="top" data-type="pcb_plated_hole" transform="translate(175.48722390645298 182.67648332611523)"/><path fill="#FF26E2" d="M-15.591165006496318,-28.583802511909916 v57.16760502381983 a15.591165006496318,15.591165006496318 0 0 0 31.182330012992637,0 v-57.16760502381983 a15.591165006496318,15.591165006496318 0 0 0 -31.182330012992637,0 z" class="pcb-hole-inner" data-pcb-layer="drill" data-type="pcb_plated_hole_drill" transform="translate(175.48722390645298 182.67648332611523)"/></g><g data-pcb-layer="through" data-type="pcb_plated_hole"><path fill="#C83434" d="M-25.9852750108272,-28.58380251190992 v57.16760502381984 a25.9852750108272,25.9852750108272 0 0 0 51.9705500216544,0 v-57.16760502381984 a25.9852750108272,25.9852750108272 0 0 0 -51.9705500216544,0 z" class="pcb-hole-outer" data-pcb-layer="top" data-type="pcb_plated_hole" transform="translate(624.512776093547 182.67648332611523)"/><path fill="#FF26E2" d="M-15.591165006496318,-28.583802511909916 v57.16760502381983 a15.591165006496318,15.591165006496318 0 0 0 31.182330012992637,0 v-57.16760502381983 a15.591165006496318,15.591165006496318 0 0 0 -31.182330012992637,0 z" class="pcb-hole-inner" data-pcb-layer="drill" data-type="pcb_plated_hole_drill" transform="translate(624.512776093547 182.67648332611523)"/></g><rect width="15.591" height="75.357" x="379.212" y="97.445" fill="#C83434" class="pcb-pad" data-pcb-layer="top" data-type="pcb_smtpad"/><rect width="15.591" height="75.357" x="483.153" y="97.445" fill="#C83434" class="pcb-pad" data-pcb-layer="top" data-type="pcb_smtpad"/><rect width="15.591" height="75.357" x="457.168" y="97.445" fill="#C83434" class="pcb-pad" data-pcb-layer="top" data-type="pcb_smtpad"/><rect width="15.591" height="75.357" x="431.182" y="97.445" fill="#C83434" class="pcb-pad" data-pcb-layer="top" data-type="pcb_smtpad"/><rect width="15.591" height="75.357" x="405.197" y="97.445" fill="#C83434" class="pcb-pad" data-pcb-layer="top" data-type="pcb_smtpad"/><rect width="15.591" height="75.357" x="353.227" y="97.445" fill="#C83434" class="pcb-pad" data-pcb-layer="top" data-type="pcb_smtpad"/><rect width="15.591" height="75.357" x="327.241" y="97.445" fill="#C83434" class="pcb-pad" data-pcb-layer="top" data-type="pcb_smtpad"/><rect width="15.591" height="75.357" x="301.256" y="97.445" fill="#C83434" class="pcb-pad" data-pcb-layer="top" data-type="pcb_smtpad"/><rect width="31.182" height="75.357" x="553.313" y="97.445" fill="#C83434" class="pcb-pad" data-pcb-layer="top" data-type="pcb_smtpad"/><rect width="31.182" height="75.357" x="511.737" y="97.445" fill="#C83434" class="pcb-pad" data-pcb-layer="top" data-type="pcb_smtpad"/><rect width="31.182" height="75.357" x="257.081" y="97.445" fill="#C83434" class="pcb-pad" data-pcb-layer="top" data-type="pcb_smtpad"/><rect width="31.182" height="75.357" x="215.505" y="97.445" fill="#C83434" class="pcb-pad" data-pcb-layer="top" data-type="pcb_smtpad"/><rect width="31.182" height="75.357" x="215.505" y="97.445" fill="#C83434" class="pcb-pad" data-pcb-layer="top" data-type="pcb_smtpad"/><rect width="31.182" height="75.357" x="257.081" y="97.445" fill="#C83434" class="pcb-pad" data-pcb-layer="top" data-type="pcb_smtpad"/><rect width="31.182" height="75.357" x="511.737" y="97.445" fill="#C83434" class="pcb-pad" data-pcb-layer="top" data-type="pcb_smtpad"/><rect width="31.182" height="75.357" x="553.313" y="97.445" fill="#C83434" class="pcb-pad" data-pcb-layer="top" data-type="pcb_smtpad"/><path fill="none" stroke="#f2eda1" stroke-linecap="round" stroke-linejoin="round" stroke-width="NaN" d="M 155.73841489822433 449.28540493720226 L 155.73841489822433 548.0294499783456" class="pcb-silkscreen pcb-silkscreen-top" data-pcb-component-id="pcb_component_0" data-pcb-layer="top" data-pcb-silkscreen-path-id="pcb_silkscreen_path_0" data-type="pcb_silkscreen_path"/><path fill="none" stroke="#f2eda1" stroke-linecap="round" stroke-linejoin="round" stroke-width="NaN" d="M 155.73841489822433 246.60025985275013 L 155.73841489822433 350.5413598960589" class="pcb-silkscreen pcb-silkscreen-top" data-pcb-component-id="pcb_component_0" data-pcb-layer="top" data-pcb-silkscreen-path-id="pcb_silkscreen_path_1" data-type="pcb_silkscreen_path"/><path fill="none" stroke="#f2eda1" stroke-linecap="round" stroke-linejoin="round" stroke-width="NaN" d="M 644.2615851017756 449.28540493720226 L 644.2615851017756 548.0294499783456" class="pcb-silkscreen pcb-silkscreen-top" data-pcb-component-id="pcb_component_0" data-pcb-layer="top" data-pcb-silkscreen-path-id="pcb_silkscreen_path_2" data-type="pcb_silkscreen_path"/><path fill="none" stroke="#f2eda1" stroke-linecap="round" stroke-linejoin="round" stroke-width="NaN" d="M 644.2615851017756 246.60025985275013 L 644.2615851017756 350.5413598960589" class="pcb-silkscreen pcb-silkscreen-top" data-pcb-component-id="pcb_component_0" data-pcb-layer="top" data-pcb-silkscreen-path-id="pcb_silkscreen_path_3" data-type="pcb_silkscreen_path"/><path fill="none" stroke="#f2eda1" stroke-linecap="round" stroke-linejoin="round" stroke-width="NaN" d="M 155.73841489822433 548.0294499783456 L 644.2615851017756 548.0294499783456" class="pcb-silkscreen pcb-silkscreen-top" data-pcb-component-id="pcb_component_0" data-pcb-layer="top" data-pcb-silkscreen-path-id="pcb_silkscreen_path_4" data-type="pcb_silkscreen_path"/><text x="0" y="0" fill="#f2eda1" stroke="none" class="pcb-silkscreen-text pcb-silkscreen-top" data-pcb-layer="top" data-pcb-silkscreen-text-id="pcb_component_0" data-type="pcb_silkscreen_text" dominant-baseline="central" dx="0" dy="0" font-family="Arial, sans-serif" font-size="51.971" text-anchor="middle" transform="matrix(1,0,0,1,400,51.97055002165445)">REF**</text><path fill="none" stroke="rgba(255,255,255,0.5)" stroke-width="NaN" d="M 632.3083585967952 155.65179731485495 L 632.3083585967952 535.0368124729321" class="pcb-fabrication-note-path" data-pcb-component-id="pcb_component_0" data-pcb-fabrication-note-path-id="undefined" data-pcb-layer="overlay" data-type="pcb_fabrication_note_path"/><path fill="none" stroke="rgba(255,255,255,0.5)" stroke-width="NaN" d="M 167.69164140320487 535.0368124729321 L 632.3083585967952 535.0368124729321" class="pcb-fabrication-note-path" data-pcb-component-id="pcb_component_0" data-pcb-fabrication-note-path-id="undefined" data-pcb-layer="overlay" data-type="pcb_fabrication_note_path"/><path fill="none" stroke="rgba(255,255,255,0.5)" stroke-width="NaN" d="M 167.69164140320487 155.65179731485495 L 167.69164140320487 535.0368124729321" class="pcb-fabrication-note-path" data-pcb-component-id="pcb_component_0" data-pcb-fabrication-note-path-id="undefined" data-pcb-layer="overlay" data-type="pcb_fabrication_note_path"/><path fill="none" stroke="rgba(255,255,255,0.5)" stroke-width="NaN" d="M 167.69164140320487 155.65179731485495 L 632.3083585967952 155.65179731485495" class="pcb-fabrication-note-path" data-pcb-component-id="pcb_component_0" data-pcb-fabrication-note-path-id="undefined" data-pcb-layer="overlay" data-type="pcb_fabrication_note_path"/><text x="0" y="0" fill="rgba(255,255,255,0.5)" class="pcb-fabrication-note-text" data-pcb-layer="overlay" data-type="pcb_fabrication_note_text" dominant-baseline="central" font-family="Arial, sans-serif" font-size="51.971" text-anchor="middle" transform="matrix(0.9998476951563913,0.01745240643728351,-0.01745240643728351,0.9998476951563913,400,610.394110004331)">USB_C_Receptacle_HRO_TYPE-C-31-M-12</text><text x="0" y="0" fill="rgba(255,255,255,0.5)" class="pcb-fabrication-note-text" data-pcb-layer="overlay" data-type="pcb_fabrication_note_text" dominant-baseline="central" font-family="Arial, sans-serif" font-size="51.971" text-anchor="middle" transform="matrix(0.9998476951563913,0.01745240643728351,-0.01745240643728351,0.9998476951563913,400,345.3443048938935)">%R</text></svg>