<svg xmlns="http://www.w3.org/2000/svg" width="800" height="600"><style/><rect width="800" height="600" x="0" y="0" fill="#000" class="boundary" data-pcb-layer="global" data-type="pcb_background"/><rect width="199.927" height="199.927" x="300.037" y="200.037" fill="none" stroke="#fff" stroke-width=".3" class="pcb-boundary" data-pcb-layer="global" data-type="pcb_boundary"/><polygon fill="#C83434" points="499.963 308.057 391.943 308.057 391.944 200.037 391.943 200.037 372.431 203.563 353.992 210.858 337.349 221.637 323.15 235.478 311.95 251.841 304.187 270.087 300.163 289.504 300.037 309.332 303.812 328.799 311.342 347.142 322.332 363.647 336.353 377.668 352.858 388.658 371.201 396.188 390.668 399.963 410.496 399.837 429.913 395.813 448.159 388.05 464.522 376.85 478.363 362.651 489.142 346.008 496.437 327.569 499.963 308.057" class="pcb-pad" data-pcb-layer="top" data-type="pcb_smtpad"/><text x="0" y="0" fill="#f2eda1" stroke="none" class="pcb-silkscreen-text pcb-silkscreen-top" data-pcb-layer="top" data-pcb-silkscreen-text-id="pcb_component_0" data-type="pcb_silkscreen_text" dominant-baseline="central" dx="0" dy="0" font-family="Arial, sans-serif" font-size="0" text-anchor="middle" transform="matrix(1,0,0,1,399.9448785703525,250.0459345247063)">REF**</text><text x="0" y="0" fill="rgba(255,255,255,0.5)" class="pcb-fabrication-note-text" data-pcb-layer="overlay" data-type="pcb_fabrication_note_text" dominant-baseline="central" font-family="Arial, sans-serif" font-size="0" text-anchor="middle" transform="matrix(0.9998476951563913,0.01745240643728351,-0.01745240643728351,0.9998476951563913,399.9448785703525,400.0734952395301)">viaGrid-pacman-1mm</text></svg>